<svg width="112" height="12" viewBox="0 0 112 12" fill="none" xmlns="http://www.w3.org/2000/svg">
<mask id="mask0_1_283" style="mask-type:luminance" maskUnits="userSpaceOnUse" x="0" y="0" width="112" height="12">
<path d="M112 0H0V12H112V0Z" fill="white"/>
</mask>
<g mask="url(#mask0_1_283)">
<path d="M0.127222 0.333674C0.391414 -0.126293 1.00424 -0.00372319 1.41142 0.183427C4.3652 1.40913 7.30809 2.66646 10.2469 3.92511C10.9959 4.13334 10.6554 5.00979 10.6554 5.55674C9.03488 5.57387 7.41295 5.55674 5.79102 5.56992C5.34299 5.55147 4.81052 5.64636 4.47278 5.28392C3.13956 4.05822 1.85265 2.7798 0.549386 1.52906C0.242977 1.22329 -0.206423 0.772554 0.13267 0.333674H0.127222ZM19.4337 0.831861C20.1473 0.553772 20.8296 0.172883 21.5868 0.0134101C22.0607 -0.0841187 22.2677 0.392982 22.4992 0.686886C21.4969 2.12214 20.0561 3.19101 18.8359 4.44834C18.3061 4.90303 17.8404 5.6569 17.0315 5.5686C15.2815 5.5686 13.5316 5.55806 11.7789 5.5686C11.6673 5.06119 11.3895 4.25987 12.0377 3.98705C14.489 2.91687 16.9661 1.87832 19.4337 0.835816V0.831861ZM33.9303 1.04669C34.0665 0.725107 34.4437 0.846359 34.7174 0.81341C37.1224 0.827908 39.526 0.81341 41.9351 0.822636C43.4331 0.846359 44.8058 2.0088 44.9978 3.44932C45.2906 5.10863 43.8811 6.82989 42.138 6.90501C40.0843 6.94718 38.028 6.87733 35.9757 6.93137C35.5754 7.98573 36.0384 9.22593 35.7415 10.3304C35.2063 10.7258 34.5949 11.1277 33.8949 11.1567C33.8949 9.32873 33.9139 7.49941 33.9044 5.6714C33.8799 5.41967 33.9412 4.99529 34.313 5.06382C36.7956 5.03219 39.2809 5.07832 41.7635 5.04933C42.3736 5.08227 43.0286 4.6368 43.049 4.01605C43.1852 3.29249 42.5043 2.65328 41.7744 2.67832C39.1869 2.63219 36.5994 2.72181 34.0256 2.6401C33.8268 2.13664 33.8894 1.57387 33.9357 1.04669H33.9303ZM56.0694 11.1475C56.0571 7.70501 56.0163 4.25987 56.0912 0.818682C59.8048 0.831862 63.5226 0.791005 67.2363 0.838452C67.0361 1.4803 66.7828 2.21572 66.2231 2.62824C63.4845 2.72577 60.7309 2.64537 57.9868 2.66514C57.9718 3.45591 57.9732 4.2625 57.9773 5.0625C60.6573 5.0546 63.3383 5.0546 66.0202 5.0625C66.0583 5.67535 66.0597 6.29216 66.0392 6.90764C63.351 6.934 60.6655 6.90764 57.9773 6.92082C57.9773 7.7116 57.9773 8.50237 57.9773 9.29315C60.5647 9.28392 63.1427 9.29315 65.7247 9.29315C66.6779 9.23779 66.8386 10.3923 67.3003 10.9749C67.0542 11.118 66.7701 11.1881 66.4832 11.1765C63.0119 11.162 59.5379 11.195 56.068 11.1594L56.0694 11.1475ZM78.2534 0.895124C78.5258 0.620989 78.7872 1.01901 79.031 1.12445C81.9249 3.28326 84.8351 5.41835 87.7221 7.58244C87.7643 5.65954 87.6676 3.73269 87.7643 1.81506C88.1974 1.27206 88.9069 1.00979 89.5524 0.769918C89.6981 1.16531 89.6682 1.58969 89.6722 2.00221C89.645 4.95443 89.6913 7.91061 89.6505 10.8628C89.7553 11.3281 89.1752 11.1871 88.9695 10.9722C86.0212 8.78573 83.0851 6.58211 80.1286 4.40616C80.0919 6.34224 80.194 8.28491 80.085 10.217C79.6574 10.7442 78.9098 11.0724 78.2153 11.1844C78.1853 8.12148 78.2153 5.05855 78.1962 1.9943C78.1839 1.62613 78.203 1.2576 78.2534 0.892487V0.895124ZM100.791 4.77387C101.328 2.49776 103.628 0.76201 106.041 0.826589C107.948 0.863492 109.848 0.75542 111.745 0.879308C111.726 1.54751 111.288 2.12741 110.872 2.63087C109.142 2.78112 107.392 2.57947 105.661 2.72049C104.242 2.88919 102.977 3.94488 102.665 5.30237C102.159 7.14751 103.726 9.17453 105.682 9.2826C107.153 9.30896 108.625 9.2826 110.097 9.2826C110.097 8.49183 110.097 7.70896 110.097 6.92214C108.998 6.90633 107.896 6.9485 106.797 6.9116C106.325 6.96168 106.167 6.43054 105.947 6.13005C105.811 5.80451 105.452 5.47107 105.634 5.09941C107.421 5.00583 109.216 5.09941 111.006 5.05591C111.331 5.09809 111.753 4.95443 111.994 5.24175C112.044 7.20023 111.994 9.16267 112.012 11.1225C110.662 11.2134 109.308 11.1528 107.959 11.1673C106.553 11.1475 105.064 11.3294 103.766 10.6796C101.497 9.7228 100.136 7.09479 100.798 4.77124L100.791 4.77387ZM4.43193 6.72577C4.78056 6.3541 5.32937 6.45163 5.79375 6.43318C7.42793 6.45822 9.05394 6.41209 10.6827 6.46349C10.6977 6.96563 10.9796 7.75641 10.3518 8.01078C7.80243 9.11918 5.23949 10.1959 2.67791 11.2806C2.00926 11.5442 1.35967 11.908 0.635181 12.0002C0.270214 11.8935 -0.0552604 11.5574 0.0182778 11.1633C0.245702 10.6651 0.688293 10.3067 1.07369 9.92313C2.20536 8.86876 3.27847 7.75246 4.43874 6.72577H4.43193ZM11.7354 6.46218C13.4336 6.43054 15.1399 6.46218 16.8327 6.44109C17.1867 6.46745 17.613 6.39496 17.8867 6.66778C19.1328 7.79463 20.3216 8.97816 21.5377 10.134C21.851 10.4609 22.2186 10.764 22.3889 11.1884C22.4869 11.7604 21.7624 12.2058 21.2518 11.9001C18.1781 10.6744 15.1481 9.34059 12.1085 8.03977C11.4099 7.80781 11.6645 6.99199 11.7354 6.46481" fill="#878493"/>
</g>
</svg>
